<svg xmlns="http://www.w3.org/2000/svg" viewBox="0 0 750 471" role="img" aria-label="Visa">
  <rect width="750" height="471" rx="40" fill="#1A1F71"/>
  <path fill="#fff" d="M278.2 334.1 329.5 137h61.8l-51.3 197.1h-61.8zm257.1-193c-12.2-4.6-31.4-9.5-55.4-9.5-61.1 0-104.1 32.5-104.4 79.1-.4 34.4 32.4 53.6 57.2 65.1 25.4 11.7 34 19.8 33.9 30.6-.2 16.5-19.8 24.1-38.1 24.1-25.5 0-39.1-3.5-60-12.2l-8.3-3.7-9 52.8c15 6.9 42.7 12.9 71.4 13.2 67.3 0 111.1-32.1 111.6-81.9.3-27.3-16.2-48.1-51.8-65.3-21.6-11.1-34.8-18.5-34.7-29.7 0-10 11.9-20.6 37.5-20.6 21.4-.3 36.9 4.3 48.9 9.2l5.9 2.8 8.9-51.8zm150.1-8.5h-47.8c-14.8 0-25.9 4-32.4 18.9l-91.8 178.2h64.8s10.6-27.9 13-33.9l79 0.1c1.8 8 7.5 33.8 7.5 33.8H750L685.4 132.6zm-71.4 120.1c5.3-13.5 25.4-65.5 25.4-65.5-.4.6 5.2-13.5 8.4-22.2l4.3 20.1s12.2 56 14.7 67.6h-52.8zM230.4 132.6l-60.5 163.3-6.5-31.4c-11.2-36.1-46.3-75.2-85.5-94.8l55.3 160h65.2l97-197.1h-65z"/>
  <path fill="#F9A12A" d="M109.2 132.6H9.7l-.9 4.5c77.9 18.9 129.5 64.4 150.8 119.2l-21.7-104.5c-3.8-14.5-14.6-18.8-28.7-19.2z"/>
</svg>
